<svg width="248" height="45" viewBox="0 0 248 45" fill="none" xmlns="http://www.w3.org/2000/svg">
<path d="M11.5508 31.9977V20.0106H0V15.0804H11.5508V2.99658H16.8368V15.0804L28.1429 15.0804V20.0105L16.8368 20.0106V31.9977H11.5508Z" fill="#F48A71"/>
<path d="M32.0117 34.4147V0.580078H37.8361V14.6456H54.3792V0.580078H60.2036V34.4147H54.3792V19.7691H37.8361V34.4147H32.0117Z" fill="#EA3C12"/>
<path d="M75.8497 34.4147C73.9573 34.4147 72.2604 33.9797 70.7595 33.1096C69.2587 32.2074 68.0676 31.015 67.1866 29.5328C66.3382 28.0182 65.9141 26.3589 65.9141 24.5543C65.9141 23.1365 66.2403 21.7992 66.8929 20.5425C67.5782 19.2536 68.5245 18.1741 69.7317 17.304C68.5245 16.434 67.5946 15.3867 66.9419 14.1623C66.2892 12.9055 65.963 11.6005 65.963 10.2471C65.963 8.44259 66.3871 6.81531 67.2356 5.36526C68.1166 3.9152 69.2912 2.75516 70.7595 1.88513C72.2279 1.01509 73.8594 0.580078 75.6539 0.580078H89.4562V5.7036H76.2902C75.4743 5.7036 74.724 5.91306 74.0388 6.33196C73.3536 6.71864 72.7988 7.25033 72.3747 7.92702C71.9831 8.60371 71.7874 9.37707 71.7874 10.2471C71.7874 11.0205 71.9995 11.7455 72.4236 12.4222C72.8477 13.0989 73.4025 13.6467 74.0877 14.0656C74.773 14.4523 75.5397 14.6456 76.3881 14.6456H87.7431V19.7691H76.6818C75.7029 19.7691 74.8383 19.9947 74.0877 20.4458C73.3372 20.897 72.7498 21.4931 72.3257 22.2342C71.9342 22.9431 71.7384 23.7326 71.7384 24.6026C71.7384 25.4405 71.9342 26.2298 72.3257 26.9711C72.7498 27.6799 73.321 28.2599 74.0388 28.7111C74.7893 29.1299 75.6376 29.3395 76.5839 29.3395H89.4562V34.4147H75.8497Z" fill="#EA3C12"/>
<path d="M113.294 44.9517C111.564 44.9517 110.047 44.6296 108.742 43.985C107.437 43.3729 106.442 42.4545 105.756 41.2299C105.071 40.0377 104.729 38.6036 104.729 36.9281C104.729 35.4135 105.022 33.738 105.61 31.9012C106.229 30.0645 107.339 28.1794 108.938 26.246C110.536 24.3126 112.804 22.4598 115.741 20.6875V5.65527H108.644V0.580078H121.565V36.0581C121.565 37.766 121.239 39.2965 120.586 40.6499C119.967 42.0033 119.037 43.0505 117.797 43.7917C116.589 44.565 115.088 44.9517 113.294 44.9517ZM112.902 39.7799C113.457 39.7799 113.946 39.6349 114.371 39.3448C114.795 39.0548 115.121 38.636 115.349 38.0881C115.578 37.5726 115.692 36.9443 115.692 36.2031V26.5844C113.897 28.0023 112.609 29.3557 111.825 30.6445C111.042 31.9334 110.569 33.0775 110.406 34.0763C110.243 35.043 110.161 35.7842 110.161 36.2997C110.161 37.4276 110.439 38.2815 110.993 38.8615C111.548 39.4737 112.184 39.7799 112.902 39.7799Z" fill="#EA3C12"/>
<path d="M142.41 34.9947C139.702 34.9947 137.303 34.4468 135.215 33.3513C133.127 32.2234 131.479 30.6283 130.272 28.5661C129.097 26.5039 128.51 24.0387 128.51 21.1708V0.580078H134.334V21.6542C134.334 23.1365 134.66 24.506 135.313 25.7627C135.998 27.0194 136.945 28.0344 138.152 28.8078C139.359 29.549 140.795 29.9195 142.459 29.9195C144.123 29.9195 145.542 29.549 146.717 28.8078C147.924 28.0344 148.854 27.0194 149.507 25.7627C150.159 24.506 150.486 23.1365 150.486 21.6542V0.580078H156.359V21.1708C156.359 24.0387 155.756 26.5039 154.548 28.5661C153.341 30.6283 151.693 32.2234 149.605 33.3513C147.517 34.4468 145.118 34.9947 142.41 34.9947Z" fill="#EA3C12"/>
<path d="M172.462 34.4147C170.537 34.4147 168.84 33.9958 167.372 33.158C165.937 32.2879 164.811 31.1279 163.995 29.6778C163.212 28.2278 162.82 26.6165 162.82 24.8443V0.580078H168.694V25.5693C168.694 26.6006 169.036 27.4866 169.721 28.2278C170.439 28.969 171.353 29.3395 172.462 29.3395H181.566V34.4147H172.462Z" fill="#EA3C12"/>
<path d="M211.212 45C209.45 45 207.9 44.6778 206.562 44.0333C205.257 43.3887 204.245 42.4382 203.527 41.1815C202.842 39.957 202.5 38.491 202.5 36.783C202.5 36.3642 202.516 35.9292 202.549 35.478C202.581 35.0592 202.63 34.6241 202.695 34.1729C200.02 34.2696 197.573 33.8991 195.354 33.0612C193.135 32.2233 191.21 31.0311 189.578 29.4844C187.98 27.9377 186.74 26.1172 185.859 24.0226C184.978 21.8958 184.537 19.5918 184.537 17.1106C184.537 14.7583 184.945 12.551 185.761 10.4887C186.576 8.42643 187.751 6.60579 189.285 5.02685C190.818 3.44791 192.662 2.22342 194.815 1.35338C196.969 0.451129 199.367 0 202.01 0C204.686 0 207.1 0.435016 209.254 1.30505C211.407 2.14286 213.251 3.33512 214.785 4.88185C216.318 6.42857 217.493 8.21697 218.309 10.247C219.124 12.2449 219.532 14.4039 219.532 16.724V36.058C219.532 37.7659 219.206 39.2965 218.553 40.6498C217.933 42.0032 217.003 43.0666 215.763 43.84C214.523 44.6133 213.006 45 211.212 45ZM210.82 39.8281C211.701 39.8281 212.386 39.506 212.876 38.8614C213.398 38.2169 213.659 37.3309 213.659 36.203V26.1493C212.288 27.1805 211.212 28.1956 210.429 29.1944C209.645 30.1933 209.075 31.144 208.716 32.0462C208.389 32.9484 208.177 33.7541 208.079 34.4629C208.014 35.1718 207.981 35.7358 207.981 36.1547C207.981 36.928 208.112 37.5885 208.373 38.1364C208.634 38.6843 208.977 39.1031 209.401 39.3931C209.858 39.6831 210.331 39.8281 210.82 39.8281ZM202.01 29.1461C202.532 29.1461 203.005 29.1299 203.43 29.0977C203.854 29.0332 204.311 28.9527 204.8 28.8561C205.322 27.8894 205.975 26.9065 206.758 25.9076C207.541 24.9088 208.503 23.942 209.645 23.0075C210.788 22.0408 212.125 21.1224 213.659 20.2524V16.724C213.659 15.0806 213.365 13.55 212.778 12.1321C212.223 10.7143 211.407 9.4898 210.331 8.45865C209.286 7.39527 208.063 6.57358 206.66 5.99356C205.257 5.38132 203.707 5.07519 202.01 5.07519C200.346 5.07519 198.796 5.38132 197.36 5.99356C195.957 6.60579 194.734 7.45973 193.69 8.55532C192.645 9.61869 191.83 10.8915 191.242 12.3738C190.655 13.8238 190.361 15.4028 190.361 17.1106C190.361 18.8185 190.655 20.4135 191.242 21.8958C191.83 23.3459 192.645 24.6188 193.69 25.7143C194.734 26.7777 195.957 27.6155 197.36 28.2277C198.796 28.8399 200.346 29.1461 202.01 29.1461Z" fill="#EA3C12"/>
<path d="M234.393 34.4147C232.5 34.4147 230.804 33.9797 229.302 33.1096C227.802 32.2074 226.611 31.015 225.73 29.5328C224.881 28.0182 224.457 26.3589 224.457 24.5543C224.457 23.1365 224.783 21.7992 225.436 20.5425C226.121 19.2536 227.067 18.1741 228.275 17.304C227.067 16.434 226.138 15.3867 225.485 14.1623C224.832 12.9055 224.506 11.6005 224.506 10.2471C224.506 8.44259 224.93 6.81531 225.779 5.36526C226.66 3.9152 227.834 2.75516 229.302 1.88513C230.771 1.01509 232.402 0.580078 234.197 0.580078H248V5.7036H234.833C234.018 5.7036 233.267 5.91306 232.582 6.33196C231.897 6.71864 231.342 7.25033 230.918 7.92702C230.526 8.60371 230.33 9.37707 230.33 10.2471C230.33 11.0205 230.542 11.7455 230.967 12.4222C231.391 13.0989 231.945 13.6467 232.631 14.0656C233.316 14.4523 234.083 14.6456 234.931 14.6456H246.287V19.7691H235.225C234.246 19.7691 233.381 19.9947 232.631 20.4458C231.88 20.897 231.293 21.4931 230.869 22.2342C230.477 22.9431 230.282 23.7326 230.282 24.6026C230.282 25.4405 230.477 26.2298 230.869 26.9711C231.293 27.6799 231.864 28.2599 232.582 28.7111C233.332 29.1299 234.181 29.3395 235.127 29.3395H248V34.4147H234.393Z" fill="#EA3C12"/>
</svg>
